<?xml version="1.0" encoding="utf-8"?>
<!-- Generator: Adobe Illustrator 15.1.0, SVG Export Plug-In . SVG Version: 6.00 Build 0)  -->
<!DOCTYPE svg PUBLIC "-//W3C//DTD SVG 1.1//EN" "http://www.w3.org/Graphics/SVG/1.1/DTD/svg11.dtd">
<svg version="1.1" id="Layer_2" xmlns="http://www.w3.org/2000/svg" xmlns:xlink="http://www.w3.org/1999/xlink" x="0px" y="0px"
	 width="140.598px" height="140.598px" viewBox="0 0 140.598 140.598" enable-background="new 0 0 140.598 140.598"
	 xml:space="preserve">
<g>
	<polygon fill="#6B8442" points="70.299,0 73.596,3.199 77.19,0.338 80.157,3.845 84.014,1.351 86.624,5.131 90.706,3.027 
		92.932,7.045 97.202,5.351 99.023,9.568 103.438,8.301 104.837,12.676 109.356,11.848 110.319,16.339 114.897,15.958 
		115.416,20.521 120.008,20.59 120.077,25.183 124.641,25.702 124.26,30.28 128.75,31.243 127.922,35.761 132.297,37.161 
		131.03,41.576 135.248,43.397 133.553,47.667 137.571,49.893 135.467,53.976 139.248,56.584 136.753,60.442 140.26,63.409 
		137.399,67.003 140.598,70.299 137.399,73.596 140.26,77.19 136.753,80.157 139.248,84.014 135.467,86.624 137.571,90.706 
		133.553,92.932 135.248,97.202 131.03,99.023 132.297,103.438 127.922,104.837 128.75,109.356 124.26,110.319 124.641,114.897 
		120.077,115.416 120.008,120.008 115.416,120.077 114.897,124.641 110.319,124.26 109.356,128.75 104.837,127.922 103.438,132.297 
		99.023,131.03 97.202,135.248 92.932,133.553 90.706,137.571 86.624,135.467 84.014,139.248 80.157,136.753 77.19,140.26 
		73.596,137.399 70.299,140.598 67.003,137.399 63.409,140.26 60.442,136.753 56.584,139.248 53.976,135.467 49.893,137.571 
		47.667,133.553 43.397,135.248 41.576,131.03 37.161,132.297 35.761,127.922 31.243,128.75 30.28,124.26 25.702,124.641 
		25.183,120.077 20.59,120.008 20.521,115.416 15.958,114.897 16.339,110.319 11.848,109.356 12.676,104.837 8.301,103.438 
		9.568,99.023 5.351,97.202 7.045,92.932 3.027,90.706 5.131,86.624 1.351,84.014 3.845,80.157 0.338,77.19 3.199,73.596 0,70.299 
		3.199,67.003 0.338,63.409 3.845,60.442 1.351,56.584 5.131,53.976 3.027,49.893 7.045,47.667 5.351,43.397 9.568,41.576 
		8.301,37.161 12.676,35.761 11.848,31.243 16.339,30.28 15.958,25.702 20.521,25.183 20.59,20.59 25.183,20.521 25.702,15.958 
		30.28,16.339 31.243,11.848 35.761,12.676 37.161,8.301 41.576,9.568 43.397,5.351 47.667,7.045 49.893,3.027 53.976,5.131 
		56.584,1.351 60.442,3.845 63.409,0.338 67.003,3.199 	"/>
	<g>
		<path fill="#FFFFFF" d="M46.555,81.89c0.555,0,1.048,0.58,1.184,1.073c0.135,0.493,0.271,2.109,0.493,2.528
			c0.223,0.419,0.284,0.457,0.284,0.457s0.173-1.136,0.444-2.062c0.271-0.924,0.826-3.021,1.615-3.021
			c0.79,0,1.258,0.789,1.258,1.442c0,0.654-0.37,0.926-0.765,0.926s-0.814-0.406-0.814-0.406s-0.691,0.579-0.962,1.825
			c-0.272,1.245-0.74,3.169-0.74,3.169s-0.37-0.616-0.642-1.85c-0.271-1.233-0.481-1.751-0.481-1.751s-0.271,0.209-0.481,0.209
			c-0.209,0-1.085-0.309-1.085-1.492C45.864,82.1,46.284,81.89,46.555,81.89z"/>
		<path fill="#FFFFFF" d="M108.856,67.729c0.619,0,1.169,0.646,1.32,1.195c0.152,0.55,0.304,2.352,0.552,2.82
			c0.247,0.468,0.315,0.51,0.315,0.51s0.192-1.268,0.496-2.299c0.303-1.031,0.923-3.367,1.803-3.367c0.881,0,1.404,0.88,1.404,1.607
			c0,0.729-0.414,1.03-0.854,1.03s-0.908-0.453-0.908-0.453s-0.771,0.646-1.073,2.036c-0.303,1.389-0.826,3.536-0.826,3.536
			s-0.411-0.688-0.716-2.064c-0.302-1.376-0.536-1.954-0.536-1.954s-0.303,0.234-0.537,0.234c-0.232,0-1.211-0.344-1.211-1.665
			C108.084,67.963,108.553,67.729,108.856,67.729z"/>
		<path fill="#FFFFFF" d="M77.787,85.749c0.48,0,0.907,0.502,1.025,0.929c0.117,0.426,0.233,1.824,0.426,2.188
			c0.192,0.362,0.246,0.395,0.246,0.395s0.149-0.981,0.384-1.782c0.234-0.8,0.716-2.615,1.397-2.615c0.684,0,1.089,0.684,1.089,1.25
			c0,0.565-0.32,0.799-0.662,0.799c-0.34,0-0.703-0.351-0.703-0.351s-0.598,0.501-0.833,1.579c-0.234,1.077-0.641,2.743-0.641,2.743
			s-0.32-0.534-0.554-1.602c-0.235-1.066-0.417-1.516-0.417-1.516s-0.234,0.182-0.416,0.182s-0.939-0.267-0.939-1.291
			C77.189,85.93,77.552,85.749,77.787,85.749z"/>
		<path fill="#FFFFFF" d="M70.403,48.82c0,0-1.526-1.825-1.526-2.318s0.393-1.184,0.738-1.333c0.345-0.147,8.486-3.404,13.714-5.377
			c5.229-1.973,11.644-3.922,12.088-3.922c0.443,0,0.764,0.37,0.764,0.592c0,0.223-0.493,0.592-0.789,0.716
			c-0.295,0.123-9.35,3.478-12.777,4.711c-3.429,1.233-8.264,3.059-9.843,3.676c-1.578,0.617-3.033,1.283-3.033,1.283
			s1.011,0.888,1.011,1.308C70.749,48.573,70.403,48.82,70.403,48.82z"/>
		<path fill="#FFFFFF" d="M73.761,51.013v-2.565c0,0,0.593,1.217,0.593,2.105c0,0.888,0.461,4.013,2.203,4.013
			c1.316,0,1.677-1.184,1.677-1.184s-0.099-1.086-0.197-1.677c-0.098-0.592-0.295-1.415-0.295-1.415v-2.565
			c0,0,1.02,2.006,1.02,3.058c0,1.053,0.066,1.579,0.066,1.579s0.525,1.085,1.117,1.085s0.986-0.986,0.986-0.986
			s-0.525-1.447-0.689-1.875c-0.165-0.428-0.461-1.349-0.461-1.349v-2.796c0,0,0.197,0.855,0.394,1.25
			c0.198,0.394,1.152,2.664,1.547,4.013c0.395,1.348,0.56,2.17,0.56,2.631c0,0.46-0.461,1.874-1.546,1.874
			c-1.086,0-1.974-1.381-1.974-1.381s-0.362,2.335-2.237,2.335c-1.183,0-1.907-1.678-2.137-3.387
			C74.157,51.769,73.761,51.013,73.761,51.013z"/>
		<path fill="#FFFFFF" d="M54.46,26.968c0,0-1.825,3.17-1.825,5.069c0,1.898,0.925,2.39,1.492,2.39s1.418-1.058,1.418-1.527
			c0-0.468-0.159-0.58-0.321-0.58c-0.158,0-0.591,0.395-0.925,0.395c-0.332,0-0.838-0.407-0.838-1.443
			c0-1.036,0.592-2.122,0.826-2.726s0.309-0.913,0.309-1.159C54.596,27.141,54.584,26.968,54.46,26.968z"/>
		<path fill="#FFFFFF" d="M28.71,85.302c0,0-1.825,3.171-1.825,5.069c0,1.899,0.925,2.393,1.492,2.393
			c0.568,0,1.418-1.061,1.418-1.529c0-0.468-0.16-0.58-0.32-0.58s-0.592,0.395-0.925,0.395s-0.838-0.406-0.838-1.442
			s0.592-2.121,0.826-2.727c0.234-0.604,0.308-0.912,0.308-1.158C28.845,85.475,28.833,85.302,28.71,85.302z"/>
		<path fill="#FFFFFF" d="M107.12,51.002c0,0-1.825,3.17-1.825,5.069s0.925,2.393,1.492,2.393s1.418-1.061,1.418-1.529
			c0-0.469-0.16-0.58-0.319-0.58c-0.162,0-0.594,0.395-0.926,0.395c-0.333,0-0.839-0.408-0.839-1.443
			c0-1.036,0.592-2.122,0.826-2.726c0.234-0.604,0.309-0.913,0.309-1.16C107.255,51.176,107.244,51.002,107.12,51.002z"/>
		<path fill="#FFFFFF" d="M59.88,34.734c-0.982,0.637-0.332,1.967-0.152,2.244s0.921,0.76,1.375,0.465
			c0.452-0.293,0.732-0.689,1.009-0.869c0.502-0.326,0.899-0.155,0.899-0.155s-0.176,2.099-1.125,4.519
			c-0.949,2.422-1.975,4.643-1.975,4.643s0.694-0.915,1.082-1.418c0.389-0.501,1.055-1.184,1.055-1.184s0.754-1.813,1.112-3.189
			c0.358-1.376,0.747-2.595,0.16-3.5C62.734,35.385,60.862,34.097,59.88,34.734z M60.772,36.192
			c-0.289,0.188-0.603,0.338-0.603,0.338s-0.038-0.583,0.202-0.738c0.125-0.082,0.923-0.063,0.923-0.063
			S61.062,36.005,60.772,36.192z"/>
		<path fill="#FFFFFF" d="M63.048,96.204c-0.091,0-0.32-0.182-0.32-0.342c0-0.158,0.821-2.76,1.711-2.76s3.057,2.554,3.057,3.126
			c0,0.57-0.342,1.665-0.342,1.665c-2.509,0-4.312,0.958-4.312,1.323c0,0.364,1.917,6.411,1.917,7.984
			c0,1.574-0.434,4.403-0.434,4.403l-0.183-0.021c0,0,0.092-0.57,0.092-2.122c0-1.551-0.845-4.678-1.324-5.863
			c-0.479-1.188-0.89-2.944-0.89-4.197c0-1.255,0.228-1.964,1.324-2.488c1.095-0.524,1.939-0.729,1.939-0.729
			s-0.845-0.981-1.142-0.981C63.504,95.201,63.23,96.204,63.048,96.204z"/>
		<path fill="#FFFFFF" d="M88.618,60.486c-0.01-0.124-0.056-0.416-0.229-0.403c-0.173,0.013-2.553,1.254-5.688,2.651
			s-6.79,2.809-8.254,3.413c-1.464,0.605-1.542,1.526-1.529,1.698c0.013,0.172,0.172,0.333,0.32,0.322
			c0.198-0.016,1.818-0.829,3.328-1.487c1.509-0.657,7.942-3.613,10.073-4.539C88.77,61.215,88.626,60.608,88.618,60.486z"/>
		<path fill="#FFFFFF" d="M101.92,95.963c-0.124,0-0.148-0.123,0.098-0.616c0.247-0.493,0.444-1.061,0.444-1.061
			c0.394,0,1.678-0.469,2.763-0.469c0.617,0,0.962,0.419,0.962,0.839s-0.567,1.431-1.209,2.294s-1.479,1.826-1.479,2.516
			c0,0.69,0.37,1.012,1.529,1.012c4.663,0,6.883-4.045,6.883-4.045h0.221c0,0-2.244,5.821-7.4,5.821
			c-1.702,0-2.367-1.061-2.367-1.751c0-0.691,0.938-2.319,1.455-2.912c0.518-0.591,1.177-1.389,1.177-1.734
			c0-0.229-0.231-0.361-1.111-0.361C102.322,95.496,101.985,95.963,101.92,95.963z"/>
		<path fill="#FFFFFF" d="M100.574,78.266c-11.194,0-21.189-0.569-21.189-0.569s5.629-3.921,12.207-7.399
			c1.32-0.696,2.646-1.281,3.919-1.771c0.857,1.661,1.703,2.347,1.703,2.347v-2.958c4.298-1.437,7.662-1.786,7.662-1.786
			l1.588-4.997c0,0-4.388-7.021-9.227-7.021c-4.008,0-6.144,3.89-6.144,5.598s0.76,2.704,1.424,3.724
			c0.133,0.204,0.277,0.403,0.431,0.61c-1.159,0.52-2.403,1.127-3.696,1.833c-6.136,3.347-14.294,11.061-14.294,11.061l-1.074,5.439
			c0,0,2.402,0.506,7.969,0.633c5.566,0.126,11.954,0.379,11.954,0.379s-13.535,6.262-13.535,12.839
			c0,0.443,0.063,1.266,0.063,1.266s-2.783-2.403-4.809-5.629c-2.021-3.226-2.97-8.096-2.97-8.096s-0.379-7.084-0.379-14.481
			c0-7.396-1.895-16.63-4.045-20.299c-2.15-3.668-4.744-3.668-5.566-3.668c-0.822,0-1.075,5.313-1.075,5.313s0.885,2.34,2.086,6.198
			c1.203,3.858,2.846,11.888,3.037,12.771c0.19,0.885,0.063,9.738-4.491,16.821c-4.554,7.085-14.294,10.247-19.292,10.247
			c-4.996,0-6.894-2.277-6.894-6.261c0-3.986,4.741-13.365,4.741-13.365s-7.666,11.594-7.666,18.804c0,3.416,2.087,6.309,5.74,6.309
			c9.012,0,16.317-4.506,21.157-9.107c4.838-4.601,8.538-13.52,8.538-13.52l0.38,2.277c0,0,0.616,11.479,5.451,17.314
			c4.459,5.502,9.535,8.681,18.548,8.681l0.214-5.455c0,0-11.859-3.558-11.859-6.546c0-1.731,6.744-3.938,16.483-7.29
			c9.741-3.352,17.646-5.376,17.646-5.376l1.519-5.502C116.829,77.634,111.768,78.266,100.574,78.266z M95.149,62.675
			c-0.592-0.901-1.564-2.609-1.564-2.823c0-0.213,0.537-0.869,2.309-0.869c3.036,0,4.554,2.403,4.554,2.403
			s-2.021,0.455-5.059,1.636C95.299,62.896,95.218,62.779,95.149,62.675z"/>
		<path fill="#FFFFFF" d="M104.237,44.783c0,0-1.028-0.977-2.425-1.742c0.314-1.006,0.523-1.89,0.523-2.367
			c0-1.409-0.939-3.851-1.996-3.851c-1.058,0-2.561,1.714-2.771,2.043c-0.212,0.328-0.588,1.033-0.588,2.489
			c0,1.455,1.173,1.996,3.311,3.217c0.067,0.038,0.134,0.076,0.199,0.114c-0.982,1.28-2.725,2.68-5.201,4.77
			c-4.062,3.428-12.044,7.208-12.238,7.313c-0.195,0.106-0.265,0.247-0.265,0.406c0,0.158,0.176,0.229,0.3,0.229
			c0.241,0,3.588-1.679,7.836-3.628c4.252-1.948,7.537-4.273,8.571-5.517c0.459-0.554,1.071-1.834,1.609-3.21
			c1.764,1.069,3.134,2.083,3.134,2.083V44.783z M101.115,42.693c-1.739-0.775-3.005-2.137-3.005-2.137s0.633-1.315,1.83-1.315
			c0.729,0,1.502,0.751,1.502,2.982c0,0.205-0.018,0.404-0.052,0.6C101.298,42.778,101.208,42.734,101.115,42.693z"/>
		<path fill="#FFFFFF" d="M75.795,32.439c0,0-0.977-0.64-2.222-1.056c0.107-0.862,0.147-1.608,0.078-1.995
			c-0.207-1.142-1.328-2.982-2.185-2.828c-0.856,0.156-1.823,1.766-1.944,2.063c-0.124,0.297-0.324,0.923-0.11,2.103
			c0.214,1.179,1.244,1.445,3.156,2.121c0.06,0.02,0.119,0.042,0.178,0.063c-0.608,1.182-1.813,2.572-3.513,4.629
			c-2.789,3.375-8.702,7.611-8.844,7.725c-0.142,0.115-0.178,0.24-0.154,0.368c0.023,0.128,0.176,0.16,0.276,0.142
			c0.196-0.036,2.661-1.888,5.818-4.092c3.159-2.203,5.479-4.57,6.135-5.73c0.29-0.516,0.598-1.644,0.833-2.838
			c1.586,0.607,2.845,1.227,2.845,1.227L75.795,32.439z M72.958,31.204c-1.523-0.373-2.75-1.29-2.75-1.29s0.32-1.159,1.291-1.335
			c0.59-0.107,1.328,0.388,1.655,2.196c0.03,0.167,0.046,0.33,0.047,0.494C73.121,31.245,73.04,31.224,72.958,31.204z"/>
		<g>
			<path fill="#FFFFFF" d="M26.392,73.387c0.263,0,0.496,0.272,0.561,0.506c0.064,0.235,0.129,0.998,0.233,1.197
				c0.105,0.197,0.134,0.216,0.134,0.216s0.082-0.537,0.21-0.975c0.128-0.438,0.39-1.431,0.764-1.431s0.595,0.375,0.595,0.684
				s-0.175,0.438-0.362,0.438c-0.187,0-0.385-0.192-0.385-0.192s-0.326,0.273-0.455,0.862c-0.128,0.59-0.35,1.501-0.35,1.501
				s-0.174-0.293-0.303-0.876c-0.128-0.584-0.227-0.829-0.227-0.829s-0.129,0.1-0.228,0.1c-0.1,0-0.514-0.146-0.514-0.705
				C26.066,73.485,26.264,73.387,26.392,73.387z"/>
			<path fill="#FFFFFF" d="M46.2,74.583c0.263,0,0.496,0.274,0.56,0.508c0.064,0.233,0.128,0.997,0.233,1.196
				c0.105,0.198,0.135,0.216,0.135,0.216s0.081-0.536,0.21-0.975c0.128-0.438,0.39-1.429,0.764-1.429s0.595,0.373,0.595,0.684
				c0,0.308-0.175,0.437-0.362,0.437c-0.187,0-0.385-0.192-0.385-0.192s-0.326,0.273-0.455,0.863c-0.129,0.59-0.351,1.5-0.351,1.5
				s-0.175-0.292-0.302-0.876c-0.129-0.583-0.228-0.828-0.228-0.828s-0.128,0.099-0.228,0.099c-0.099,0-0.513-0.146-0.513-0.706
				C45.873,74.683,46.071,74.583,46.2,74.583z"/>
			<path fill="#FFFFFF" d="M47.573,63.784c0.262,0,0.496,0.274,0.56,0.508c0.064,0.232,0.128,0.998,0.233,1.196
				c0.105,0.199,0.134,0.216,0.134,0.216s0.082-0.536,0.21-0.974c0.128-0.438,0.391-1.43,0.764-1.43
				c0.374,0,0.595,0.373,0.595,0.683c0,0.309-0.175,0.437-0.362,0.437c-0.186,0-0.385-0.192-0.385-0.192s-0.326,0.274-0.455,0.863
				c-0.129,0.59-0.35,1.5-0.35,1.5s-0.175-0.292-0.303-0.875s-0.228-0.829-0.228-0.829s-0.128,0.099-0.228,0.099
				c-0.098,0-0.513-0.146-0.513-0.706C47.246,63.883,47.443,63.784,47.573,63.784z"/>
			<path fill="#FFFFFF" d="M55.495,69.653c0.137,0,0.259,0.143,0.292,0.264c0.034,0.121,0.068,0.518,0.122,0.622
				c0.055,0.104,0.07,0.111,0.07,0.111s0.043-0.279,0.11-0.506c0.067-0.228,0.204-0.743,0.397-0.743c0.194,0,0.31,0.193,0.31,0.354
				s-0.091,0.228-0.188,0.228c-0.097,0-0.2-0.1-0.2-0.1s-0.17,0.143-0.236,0.448c-0.067,0.306-0.183,0.778-0.183,0.778
				s-0.091-0.15-0.158-0.454s-0.119-0.431-0.119-0.431s-0.066,0.053-0.118,0.053c-0.052,0-0.267-0.076-0.267-0.368
				C55.326,69.704,55.428,69.653,55.495,69.653z"/>
			<path fill="#FFFFFF" d="M37.774,50.613c0.168,0,0.319,0.176,0.36,0.327c0.042,0.15,0.083,0.643,0.151,0.771
				c0.067,0.128,0.086,0.139,0.086,0.139s0.053-0.346,0.136-0.628C38.589,50.939,38.76,50.3,39,50.3c0.241,0,0.384,0.241,0.384,0.44
				s-0.113,0.282-0.234,0.282c-0.12,0-0.248-0.124-0.248-0.124s-0.21,0.176-0.293,0.556c-0.083,0.38-0.226,0.967-0.226,0.967
				s-0.113-0.188-0.196-0.564c-0.083-0.375-0.146-0.534-0.146-0.534s-0.083,0.064-0.146,0.064c-0.065,0-0.331-0.094-0.331-0.456
				C37.564,50.676,37.691,50.613,37.774,50.613z"/>
			<path fill="#FFFFFF" d="M34.013,47.201c-0.155,0.036-2.237,1.231-3.903,2.339c-1.667,1.108-4.246,2.897-4.354,2.977
				c-0.108,0.079-0.191,0.352-0.151,0.523c0.04,0.172,0.721,0.685,0.721,0.685s0.101-0.114,0.066-0.26
				c-0.033-0.146-0.458-0.374-0.458-0.374s0.455-0.35,0.956-0.691c0.502-0.342,2.042-1.366,3.139-2.072s3.987-2.603,4.081-2.669
				c0.092-0.067,0.235-0.236,0.217-0.313C34.31,47.269,34.168,47.166,34.013,47.201z"/>
			<path fill="#FFFFFF" d="M45.192,38.11c-0.044-0.354-0.193-0.958-0.226-1.064c-0.034-0.106-0.049-0.328-0.049-0.328l-0.111,0.698
				c0,0,0.038,0.242,0.062,0.355c0.024,0.113,0.097,0.496,0.097,0.496s-0.138,0.23-0.286,0.207
				c-0.147-0.024-0.235-0.314-0.235-0.314s0.004-0.135,0.046-0.397c0.042-0.263-0.132-0.805-0.132-0.805l-0.102,0.641
				c0,0,0.016,0.214,0.018,0.365c0.001,0.152-0.018,0.426-0.018,0.426s-0.138,0.281-0.466,0.229
				c-0.436-0.069-0.426-0.868-0.391-1.089c0.036-0.222-0.063-0.549-0.063-0.549l-0.103,0.641c0,0,0.069,0.204,0.046,0.714
				c-0.01,0.436,0.104,0.883,0.399,0.93c0.468,0.075,0.652-0.494,0.652-0.494s0.167,0.38,0.437,0.423
				c0.271,0.042,0.442-0.292,0.46-0.406S45.237,38.462,45.192,38.11z"/>
			<path fill="#FFFFFF" d="M41.569,37.438c-0.044-0.353-0.192-0.957-0.226-1.063c-0.034-0.106-0.049-0.328-0.049-0.328l-0.111,0.698
				c0,0,0.037,0.242,0.061,0.355c0.024,0.113,0.098,0.496,0.098,0.496s-0.138,0.23-0.286,0.207
				c-0.148-0.023-0.237-0.315-0.237-0.315s0.005-0.133,0.047-0.396c0.042-0.263-0.132-0.804-0.132-0.804l-0.102,0.64
				c0,0,0.016,0.212,0.017,0.365c0.002,0.151-0.017,0.426-0.017,0.426s-0.138,0.281-0.466,0.229c-0.435-0.069-0.426-0.868-0.39-1.09
				c0.035-0.221-0.064-0.549-0.064-0.549l-0.102,0.641c0,0,0.067,0.205,0.045,0.714c-0.011,0.437,0.104,0.884,0.399,0.932
				c0.468,0.075,0.651-0.494,0.651-0.494s0.167,0.38,0.438,0.424c0.271,0.042,0.441-0.292,0.46-0.407
				C41.623,38.002,41.614,37.79,41.569,37.438z"/>
			<path fill="#FFFFFF" d="M33.933,51.147c-0.045-0.353-0.193-0.957-0.227-1.063c-0.033-0.106-0.048-0.328-0.048-0.328l-0.111,0.698
				c0,0,0.038,0.242,0.062,0.355c0.023,0.114,0.098,0.495,0.098,0.495s-0.138,0.23-0.286,0.207
				c-0.147-0.024-0.236-0.315-0.236-0.315s0.004-0.135,0.046-0.397s-0.133-0.805-0.133-0.805l-0.102,0.641
				c0,0,0.017,0.213,0.017,0.365c0.001,0.152-0.017,0.426-0.017,0.426s-0.137,0.281-0.466,0.229
				c-0.435-0.069-0.425-0.868-0.391-1.089c0.036-0.222-0.064-0.549-0.064-0.549l-0.102,0.641c0,0,0.069,0.205,0.045,0.714
				c-0.01,0.436,0.104,0.884,0.399,0.931c0.468,0.075,0.651-0.494,0.651-0.494s0.167,0.38,0.438,0.423
				c0.271,0.043,0.442-0.292,0.46-0.407C33.986,51.712,33.979,51.5,33.933,51.147z"/>
			<path fill="#FFFFFF" d="M37.779,39.883c0,0-0.364,0.365-0.364,0.525c0,0.112,0.076,0.201,0.124,0.246
				c-0.186,0.249-0.387,0.587-0.387,0.719c0,0.138,0.135,0.312,0.345,0.48c-0.042,0.081-0.102,0.19-0.185,0.337
				c-0.264,0.467-1.811,1.212-1.811,1.212l0.029,0.176c0,0,1.154-0.482,2.06-1.14c0.146-0.105,0.262-0.202,0.361-0.294
				c0.428,0.217,0.825,0.119,0.997,0.119c0.174,0,0.35-0.481,0.453-0.818C39.503,41.11,37.779,39.883,37.779,39.883z M37.415,41.299
				c0-0.088,0.228-0.458,0.337-0.559c0.042,0.014,0.089,0.031,0.141,0.052c0.088,0.105,0.194,0.293,0.194,0.405
				c0,0.161-0.015,0.336-0.073,0.453c-0.002,0.006-0.006,0.011-0.011,0.016C37.693,41.541,37.415,41.363,37.415,41.299z
				 M38.539,41.796c-0.078,0-0.167-0.015-0.262-0.039c0.149-0.255,0.116-0.433,0.116-0.56c0-0.051-0.025-0.123-0.064-0.204
				c0.05,0.027,0.102,0.056,0.152,0.087c0.452,0.277,0.569,0.452,0.569,0.54C39.05,41.708,38.948,41.796,38.539,41.796z"/>
			<path fill="#FFFFFF" d="M31.802,59.364c0,0-0.459,0.459-0.459,0.662c0,0.141,0.097,0.252,0.155,0.309
				c-0.234,0.313-0.487,0.739-0.487,0.905c0,0.175,0.171,0.394,0.435,0.606c-0.053,0.102-0.128,0.24-0.232,0.425
				c-0.332,0.588-2.282,1.526-2.282,1.526l0.037,0.221c0,0,1.454-0.607,2.593-1.435c0.184-0.134,0.332-0.256,0.455-0.371
				c0.54,0.272,1.04,0.15,1.256,0.15c0.221,0,0.441-0.607,0.57-1.03C33.973,60.909,31.802,59.364,31.802,59.364z M31.343,61.149
				c0-0.112,0.287-0.578,0.425-0.704c0.052,0.018,0.111,0.04,0.176,0.065c0.112,0.132,0.245,0.37,0.245,0.51
				c0,0.202-0.018,0.423-0.092,0.57c-0.004,0.007-0.009,0.015-0.014,0.02C31.693,61.452,31.343,61.229,31.343,61.149z
				 M32.759,61.774c-0.099,0-0.212-0.019-0.33-0.049c0.188-0.321,0.146-0.544,0.146-0.705c0-0.063-0.032-0.155-0.081-0.257
				c0.063,0.034,0.127,0.071,0.191,0.11c0.57,0.35,0.717,0.57,0.717,0.682C33.402,61.664,33.274,61.774,32.759,61.774z"/>
			<path fill="#FFFFFF" d="M39.474,59.938c0,0-0.409,0.525-0.701,1.184c-0.292,0.656-0.658,1.373-0.658,1.839
				c0,0.468,0.22,0.6,0.862,0.6c0.745,0,1.388-0.848,1.388-1.432C40.365,61.544,39.474,59.938,39.474,59.938z M39.065,62.699
				c-0.438,0-0.409-0.263-0.409-0.395c0-0.131,0.029-0.351,0.146-0.57c0.116-0.219,0.32-0.497,0.32-0.497s0.395,0.219,0.526,0.351
				C39.781,61.72,40,62.041,40,62.129S39.649,62.699,39.065,62.699z"/>
			<path fill="#FFFFFF" d="M30.671,51.408c0,0-0.409,0.525-0.701,1.183c-0.292,0.658-0.657,1.374-0.657,1.841
				c0,0.468,0.219,0.598,0.862,0.598c0.745,0,1.388-0.847,1.388-1.431C31.562,53.014,30.671,51.408,30.671,51.408z M30.262,54.168
				c-0.438,0-0.409-0.263-0.409-0.395c0-0.132,0.029-0.351,0.146-0.569c0.118-0.22,0.322-0.497,0.322-0.497s0.395,0.219,0.526,0.351
				c0.131,0.132,0.35,0.453,0.35,0.541C31.196,53.686,30.846,54.168,30.262,54.168z"/>
			<path fill="#FFFFFF" d="M51.583,58.866c0,0-0.097-0.37,0.058-0.467c0.156-0.098,5.045-2.941,5.045-2.941s0.039,0.351-0.117,0.526
				c-0.156,0.174-4.83,2.843-4.83,2.843L51.583,58.866z"/>
			<path fill="#FFFFFF" d="M26.109,72.266c0,0-0.098-0.369,0.058-0.466c0.156-0.099,5.044-2.936,5.044-2.936
				s0.038,0.349-0.117,0.524c-0.156,0.176-4.831,2.839-4.831,2.839L26.109,72.266z"/>
			<path fill="#FFFFFF" d="M29.117,48.788c0,0-0.096-0.37,0.059-0.467c0.156-0.098,5.044-2.941,5.044-2.941s0.039,0.35-0.117,0.525
				c-0.156,0.176-4.831,2.844-4.831,2.844L29.117,48.788z"/>
			<path fill="#FFFFFF" d="M48.048,50.95c0,0-0.098-0.37,0.059-0.467c0.155-0.098,5.044-2.941,5.044-2.941s0.039,0.35-0.117,0.526
				c-0.156,0.176-4.83,2.844-4.83,2.844L48.048,50.95z"/>
			<path fill="#FFFFFF" d="M43.458,61.32c0,0-0.086-0.326,0.052-0.412c0.137-0.086,4.451-2.595,4.451-2.595s0.034,0.309-0.104,0.464
				c-0.137,0.155-4.262,2.509-4.262,2.509L43.458,61.32z"/>
			<path fill="#FFFFFF" d="M47.081,70.114c-0.178,0.061-0.167,0.451-0.167,0.451l0.165-0.003c0,0,5.279-1.564,5.476-1.703
				c0.196-0.138,0.239-0.495,0.239-0.495S47.258,70.053,47.081,70.114z"/>
			<path fill="#FFFFFF" d="M36.739,60.532c0,0-0.087-0.327,0.051-0.413c0.137-0.086,4.452-2.596,4.452-2.596s0.034,0.31-0.104,0.464
				c-0.138,0.155-4.263,2.509-4.263,2.509L36.739,60.532z"/>
			<path fill="#FFFFFF" d="M37.878,36.665c0,0-0.086-0.327,0.051-0.413c0.138-0.085,4.452-2.595,4.452-2.595s0.035,0.31-0.103,0.465
				c-0.138,0.154-4.263,2.508-4.263,2.508L37.878,36.665z"/>
			<path fill="#FFFFFF" d="M55.341,60.084c0,0-0.849,1.474-0.849,2.357c0,0.884,0.43,1.114,0.694,1.114
				c0.264,0,0.66-0.494,0.66-0.711c0-0.218-0.075-0.271-0.149-0.271c-0.075,0-0.275,0.184-0.43,0.184
				c-0.155,0-0.391-0.189-0.391-0.671s0.275-0.987,0.385-1.268c0.109-0.281,0.143-0.425,0.143-0.54
				C55.405,60.165,55.399,60.084,55.341,60.084z"/>
			<path fill="#FFFFFF" d="M56.422,51.729c0,0-0.848,1.474-0.848,2.358c0,0.883,0.43,1.112,0.694,1.112s0.66-0.494,0.66-0.711
				c0-0.218-0.075-0.27-0.149-0.27c-0.074,0-0.275,0.184-0.43,0.184c-0.155,0-0.391-0.189-0.391-0.671
				c0-0.481,0.276-0.986,0.385-1.268c0.109-0.281,0.143-0.424,0.143-0.539C56.485,51.809,56.479,51.729,56.422,51.729z"/>
			<path fill="#FFFFFF" d="M50.989,44.075c0,0-0.849,1.474-0.849,2.357s0.43,1.113,0.693,1.113c0.264,0,0.66-0.493,0.66-0.711
				s-0.075-0.27-0.148-0.27c-0.075,0-0.276,0.184-0.43,0.184c-0.155,0-0.39-0.19-0.39-0.671s0.275-0.987,0.384-1.267
				c0.108-0.281,0.144-0.425,0.144-0.54C51.052,44.155,51.046,44.075,50.989,44.075z"/>
			<path fill="#FFFFFF" d="M46.049,32.638c0,0-0.85,1.474-0.85,2.357c0,0.883,0.43,1.113,0.694,1.113c0.265,0,0.66-0.494,0.66-0.711
				c0-0.218-0.075-0.27-0.149-0.27c-0.075,0-0.276,0.184-0.431,0.184c-0.154,0-0.39-0.189-0.39-0.671s0.275-0.986,0.384-1.267
				c0.109-0.282,0.144-0.425,0.144-0.54C46.112,32.718,46.106,32.638,46.049,32.638z"/>
			<path fill="#FFFFFF" d="M32.084,41.401c0,0-0.849,1.475-0.849,2.357c0,0.884,0.431,1.113,0.694,1.113
				c0.264,0,0.66-0.493,0.66-0.711c0-0.218-0.075-0.27-0.148-0.27c-0.075,0-0.276,0.184-0.43,0.184c-0.155,0-0.39-0.189-0.39-0.671
				c0-0.481,0.275-0.986,0.384-1.267c0.108-0.282,0.143-0.424,0.143-0.54C32.147,41.482,32.142,41.401,32.084,41.401z"/>
			<path fill="#FFFFFF" d="M33.72,56.563c0,0-0.849,1.474-0.849,2.358c0,0.883,0.43,1.112,0.694,1.112
				c0.263,0,0.66-0.493,0.66-0.711s-0.075-0.27-0.15-0.27c-0.074,0-0.275,0.184-0.43,0.184c-0.155,0-0.39-0.189-0.39-0.671
				c0-0.481,0.275-0.986,0.385-1.267c0.109-0.281,0.143-0.425,0.143-0.539C33.783,56.644,33.777,56.563,33.72,56.563z"/>
			<path fill="#FFFFFF" d="M28.286,55.862c0,0-0.849,1.475-0.849,2.358c0,0.884,0.43,1.113,0.694,1.113s0.66-0.493,0.66-0.711
				c0-0.217-0.075-0.269-0.149-0.269s-0.276,0.183-0.43,0.183c-0.155,0-0.39-0.189-0.39-0.671c0-0.482,0.275-0.987,0.384-1.268
				c0.109-0.281,0.144-0.425,0.144-0.539C28.35,55.943,28.344,55.862,28.286,55.862z"/>
			<path fill="#FFFFFF" d="M27.243,63.002c0,0-1.247,1.158-1.507,2.001c-0.262,0.844,0.082,1.19,0.333,1.269
				c0.252,0.078,0.777-0.277,0.841-0.485c0.064-0.208,0.008-0.28-0.063-0.301c-0.071-0.022-0.317,0.094-0.465,0.048
				c-0.149-0.046-0.317-0.296-0.175-0.756c0.143-0.46,0.555-0.861,0.742-1.097c0.188-0.237,0.262-0.363,0.296-0.473
				C27.28,63.098,27.298,63.019,27.243,63.002z"/>
			<path fill="#FFFFFF" d="M38.413,74.508c0,0-1.247,1.158-1.507,2.001c-0.261,0.845,0.082,1.19,0.333,1.269
				c0.252,0.078,0.776-0.275,0.841-0.484c0.064-0.207,0.008-0.28-0.063-0.302c-0.071-0.021-0.317,0.095-0.465,0.049
				c-0.149-0.045-0.317-0.296-0.175-0.756c0.143-0.46,0.555-0.861,0.742-1.099c0.187-0.235,0.263-0.361,0.297-0.472
				C38.45,74.603,38.468,74.526,38.413,74.508z"/>
			<path fill="#FFFFFF" d="M51.806,53.453c0,0-0.849,1.474-0.849,2.357c0,0.883,0.431,1.113,0.694,1.113s0.66-0.493,0.66-0.711
				c0-0.218-0.075-0.27-0.15-0.27c-0.074,0-0.274,0.184-0.43,0.184c-0.155,0-0.39-0.189-0.39-0.671c0-0.482,0.276-0.987,0.384-1.268
				c0.109-0.282,0.144-0.425,0.144-0.539C51.87,53.532,51.863,53.453,51.806,53.453z"/>
			<path fill="#FFFFFF" d="M44.562,55.556c0,0-0.849,1.474-0.849,2.357c0,0.884,0.431,1.113,0.694,1.113s0.659-0.493,0.659-0.711
				s-0.075-0.27-0.149-0.27s-0.276,0.184-0.431,0.184s-0.39-0.189-0.39-0.671c0-0.481,0.276-0.986,0.384-1.268
				c0.109-0.28,0.144-0.424,0.144-0.539S44.619,55.556,44.562,55.556z"/>
			<polygon fill="#FFFFFF" points="39.81,70.01 40.95,68.669 41.884,70.01 40.862,71.352 			"/>
			<polygon fill="#FFFFFF" points="42.001,70.01 43.141,68.669 44.075,70.01 43.053,71.352 			"/>
			<path fill="#FFFFFF" d="M37.314,37.02c-0.524,0-0.604,0.658-0.604,0.806c0,0.148,0.161,0.51,0.403,0.51
				c0.242,0,0.443-0.08,0.591-0.08c0.269,0,0.375,0.161,0.375,0.161s-0.577,0.746-1.524,1.424c-0.947,0.678-1.874,1.262-1.874,1.262
				s0.483-0.174,0.752-0.268s0.685-0.188,0.685-0.188s0.725-0.497,1.195-0.926c0.47-0.431,0.913-0.793,0.913-1.276
				S37.838,37.02,37.314,37.02z M37.293,37.785c-0.154,0-0.309-0.021-0.309-0.021s0.128-0.229,0.255-0.229
				c0.067,0,0.363,0.202,0.363,0.202S37.448,37.785,37.293,37.785z"/>
			<path fill="#FFFFFF" d="M42.366,32.784c0-0.146,0.351-0.628,0.467-0.628c0.117,0,1.563,1.402,1.563,2.483
				c0,1.081-0.263,1.812-0.263,1.812l-0.161-0.015c0,0,0.059-0.701,0.059-1.373c0-0.673-0.307-1.022-0.745-1.417
				C42.848,33.251,42.366,32.9,42.366,32.784z"/>
			<path fill="#FFFFFF" d="M56.471,66.792c-2.025,0-3.72,2.508-4.499,3.675c-0.235,0.353-0.482,0.889-0.711,1.461
				c-1.104-0.76-1.003-1.869-1.003-1.869s-4.752,1.906-9.622,1.906c-3.822,0-4.667-2.517-4.854-4.239
				c1.05-0.562,1.924-1.537,1.924-1.537s-0.088,1.722,1.957,1.722c2.045,0,2.367-1.751,2.367-1.751s1.256,3.034,5.083,2.859
				c3.828-0.175,7.012-1.983,9.027-3.005c2.016-1.022,3.915-1.987,3.915-1.987l0.497-1.665c0,0-4.089,2.133-5.755,2.133
				c-1.665,0-3.768-2.425-3.768-3.097s1.694-1.607,4.528-1.607c1.227,0,1.928,0.037,1.928,0.037s-1.052-1.264-3.184-1.264
				c-2.133,0-4.266,2.103-4.266,3.535c0,1.431,1.14,2.366,1.578,2.775c0.439,0.409,1.374,1.11,1.374,1.11s-3.535,1.546-5.843,1.546
				c-2.624,0-4.195-1.884-4.744-2.684c0.47-0.05,0.837-0.078,0.837-0.078s2.386-1.16,3.98-2.233
				c1.595-1.073,3.079-1.958,3.293-3.401c0.216-1.443-0.528-4.422-2.091-4.656c-1.563-0.233-2.096,1.695-2.163,2.136
				c-0.065,0.441,0.254,1.595,0.976,1.703c0.721,0.108,1.358-0.042,1.8,0.023c0.801,0.12,1.051,0.648,1.051,0.648
				s-2.056,1.967-5.184,3.569c-0.86,0.441-1.712,0.861-2.497,1.238c0.052-1.477,0.126-4.185,0.126-7.541
				c0-0.587-0.008-1.179-0.023-1.771c0.286,0.156,0.665,0.291,1.133,0.291c1.578,0,2.999-2.454,2.999-2.454s0.663,1.675,1.851,1.675
				s1.908-1.247,1.908-1.247s0.273,0.545,1.071,0.545c0.799,0,1.967-0.935,1.967-1.928c0-0.993-0.721-1.539-0.721-1.539L52.4,50.979
				c0,0,0.292,0.273,0.292,0.41c0,0.136-0.214,0.253-0.623,0.253s-0.974-0.195-0.974-0.624c0-0.428,0.039-0.954,0.039-0.954
				l-0.467,0.176c0,0-0.584,2.181-1.792,2.181c-1.208,0-1.422-0.525-1.422-0.525v-1.247H46.87c0,0-1.618,2.474-3.059,2.474
				c-0.795,0-1.116-0.095-1.358-0.181c-0.037-0.914-0.084-1.812-0.137-2.665c1.693-0.752,2.158-3.057,2.158-3.057
				s0.273,3.097,2.492,3.097c1.87,0,2.377-2.104,2.377-2.863c0-0.759-0.175-1.402-0.253-1.616c-0.078-0.215-1.188-3.74-1.188-3.74
				s0.623,0.428,0.681,0.273c0.058-0.156-0.507-1.072-0.507-1.228c0-0.155,0.079-0.486,0.312-0.486c0.234,0,2.435,2.279,3.563,4.343
				c1.129,2.064,2.065,4.187,2.065,6.116c0,3.076-1.539,5.316-1.539,5.316s2.24-1.403,2.24-5.219c0-3.817-1.85-7.089-2.843-8.433
				s-2.571-3.448-3.233-3.915s-1.675-1.324-1.675-1.324s-0.058,0.683,0.04,1.208c0.098,0.526,0.312,0.935,0.312,0.935
				s-0.156,0.214-0.332,0.546c-0.175,0.331-0.351,1.013-0.351,1.013l2.084,6.933c0,0-0.389,0.662-1.363,0.662
				c-1.832,0-2.026-1.772-2.026-1.772s-0.136-2.474-0.292-3.895c-0.117-1.733-0.721-3.253-0.721-3.253l-0.643,1.325
				c0,0,0.448,2.551,0.448,4.012c0,1.461-0.039,1.831-0.039,1.831s-0.91,1.193-1.864,1.72c-0.154-2.213-0.307-3.955-0.307-4.642
				c0-0.83,0.031-1.391,0.057-1.707c0.418,0.508,0.858,0.967,0.858,0.967s-0.263-1.295-0.458-2.016c-0.195-0.72-0.77-2.19-0.77-2.19
				s-0.194,0.37-0.438,0.711c-0.243,0.341-0.379,0.672-0.379,0.672s0.102,0.221,0.287,0.549c-0.018,0.21-0.034,0.527-0.034,0.999
				c0,0.695,0.253,3.925,0.441,6.9c-0.02,0.001-0.041,0.004-0.062,0.004c-1.168,0-1.558-1.248-1.558-1.637s0.584-3.544,0.584-4.304
				s-0.41-1.675-0.41-1.675s-1.129,1.129-1.558,2.609c-0.428,1.48-0.974,4.967-1.752,4.967c-0.78,0-1.637-1.792-1.637-3.311
				s0.117-2.531,0.117-2.531l-0.273-0.02c0,0-0.487,1.675-0.487,3.019c0,1.343,0.955,4.382,2.221,4.382
				c1.558,0,1.811-4.188,2.045-5.083c0.234-0.896,0.974-2.084,0.974-2.084s0,0.721,0,1.052c0,0.331-0.584,2.278-0.584,3.272
				c0,0.992,0.486,2.804,2.083,2.804c0.132,0,0.258-0.01,0.382-0.026c0.049,0.876,0.086,1.684,0.104,2.338
				c-0.583,0.116-0.861,0.94-1.694,0.94c-1.655,0-1.46-0.916-3.622-0.916c-0.309,0-0.616,0.066-0.919,0.181
				c-0.195-0.973-0.386-1.684-0.386-1.778c0-0.194-0.156-0.447-0.253-0.447c-0.097,0-0.292,0.389-0.292,0.526
				c0,0.135-0.292,1.382-0.292,1.382s0.11,0.326,0.225,0.866c-1.406,1-2.598,2.753-3.128,3.418
				c-0.759,0.955-2.375,3.486-4.168,3.486c-0.525,0-0.817-0.35-0.817-0.954c0-2.493,0.643-4.285,0.643-4.285
				s-1.247,1.753-1.247,3.544s0.565,2.941,2.025,2.941s3.505-2.57,4.363-3.836c0.588-0.868,1.385-2.165,2.544-2.896
				c0.028,0.316,0.046,0.654,0.046,1.007c0,1.85-0.156,7.907-0.156,9.504c0,0.348,0.017,0.662,0.043,0.943
				c-0.143,0.039-0.272,0.061-0.383,0.061c-1.724,0-1.871-2.98-3.244-2.98c-2.979,0-3.271,5.517-5.054,5.517
				c-1.489,0-1.46-2.158-1.46-2.83s0.263-2.863,0.263-2.863h-0.322c0,0-0.672,1.607-0.672,2.775c0,1.168,0.789,4.464,2.309,4.464
				c1.519,0,3.154-5.457,4.352-5.457c1.06,0,1.525,2.328,3.317,2.866c-0.269,0.229-0.715,0.614-1.126,0.987
				c-0.642,0.583-2.044,1.545-2.279,1.867c-0.233,0.32-0.437,1.078-0.437,1.399c0.291,0.263,0.934,0.702,2.454,1.198
				c1.519,0.496,2.979,0.993,2.979,1.14c0,0.146-3.974,3.419-9.991,3.419c-2.775,0-3.447-2.514-3.447-3.331
				c0-2.484,1.665-6.013,1.665-6.013L23.1,68.873c0,0-2.309,3.852-2.309,6.072s0.701,5.404,4.003,5.404
				c3.301,0,6.455-1.403,7.712-2.22c1.256-0.817,4.12-2.718,4.12-4.091c0-1.108-1.023-1.548-1.023-1.548s-1.314-0.351-1.958-0.613
				c-0.643-0.263-1.343-0.642-1.343-0.759c0-0.115,0.525-0.35,1.052-0.845c0.752-0.703,1.139-1.854,1.232-2.166
				c0.1-0.006,0.201-0.019,0.302-0.04c-0.035,0.567-0.175,5.805,6.878,5.805c4.168,0,7.732-2.201,7.732-2.201
				s0.061,1.173,1.151,1.97c-0.214,0.66-0.353,1.146-0.353,1.146l0.429,0.021c0,0,0.133-0.361,0.371-0.896
				c0.531,0.267,1.237,0.447,2.18,0.447c3.642,0,6.875-2.921,6.875-4.068C60.152,69.145,58.497,66.792,56.471,66.792z
				 M48.017,56.756c-0.461-0.069-0.913-0.198-0.913-0.198s0.482-0.624,0.863-0.567c0.2,0.029,0.993,0.763,0.993,0.763
				S48.478,56.826,48.017,56.756z M35.693,54.543c0.252-0.063,0.517-0.098,0.796-0.098c0.623,0,0.896,0.117,0.896,0.117
				s0.058,1.285,0.545,1.947c0.487,0.663,1.071,1.11,1.87,1.11c0.292-0.564,0.389-1.051,0.389-1.363s-0.136-0.545-0.136-0.545
				s0.525-0.175,0.954-0.487c0.248-0.181,0.502-0.562,0.672-0.852c0,2.564,0,7.532,0,9.77c-1.705,0.809-2.937,1.351-2.937,1.351
				s1.521-0.305,2.364-0.466c0.177-0.034,0.374-0.065,0.573-0.093c0,0.023,0,0.045,0,0.066c-0.562,0.518-1.522,1.247-2.483,1.247
				c-1.49,0-0.701-2.074-0.701-2.074s-1.464,1.094-2.762,1.785c0.02-2.061,0.113-7.328,0.113-9.409
				C35.846,55.892,35.783,55.202,35.693,54.543z M54.153,72.626c-0.959,0-1.681-0.139-2.227-0.353
				c0.277-0.479,0.594-0.966,0.942-1.398c1.285-1.594,2.454-2.644,3.311-2.644c0.857,0,2.804,1.672,2.804,2.333
				C58.983,71.225,56.218,72.626,54.153,72.626z"/>
		</g>
	</g>
	<path fill="#FFFFFF" d="M70.3,135.174c-35.772,0-64.875-29.103-64.875-64.875c0-35.772,29.103-64.875,64.875-64.875
		c35.771,0,64.873,29.103,64.873,64.875C135.173,106.072,106.072,135.174,70.3,135.174z M70.3,8.424
		c-34.118,0-61.875,27.757-61.875,61.875s27.757,61.875,61.875,61.875c34.117,0,61.873-27.757,61.873-61.875
		S104.417,8.424,70.3,8.424z"/>
	<path fill="#FFFFFF" d="M70.3,129.924c-32.877,0-59.625-26.748-59.625-59.625c0-32.877,26.748-59.625,59.625-59.625
		c32.876,0,59.623,26.748,59.623,59.625C129.923,103.176,103.176,129.924,70.3,129.924z M70.3,15.674
		c-30.12,0-54.625,24.505-54.625,54.625S40.18,124.924,70.3,124.924c30.119,0,54.623-24.505,54.623-54.625
		S100.419,15.674,70.3,15.674z"/>
</g>
</svg>
